PathFileType	4	(X/Y/Z)	..\data\2014050\dynamic\2014050_C5_05.trc
DataRate	CameraRate	NumFrames	NumMarkers	Units	OrigDataRate	OrigDataStartFrame	OrigNumFrames
100.000000	100.000000	4	52	mm	100.000000	35	142
Frame#	Time	L_IAS			L_IPS			R_IPS			R_IAS			L_FTC			L_FLE			L_FME			L_FAX			L_TTC			L_FAL			L_TAM			L_FCC			L_FM1			L_FM2			L_FM5			R_FTC			R_FLE			R_FME			R_FAX			R_TTC			R_FAL			R_TAM			R_FCC			R_FM1			R_FM2			R_FM5			CV7			TV10			SXS			SJN			L_SIA			L_SRS			L_SAA			L_SAE			L_HLE			L_HME			L_UOA			L_RSP			L_UHE			L_HM2			L_HM5			R_SIA			R_SRS			R_SAA			R_SAE			R_HLE			R_HME			R_UOA			R_RSP			R_UHE			R_HM2			R_HM5			
		X1	Y1	Z1	X2	Y2	Z2	X3	Y3	Z3	X4	Y4	Z4	X5	Y5	Z5	X6	Y6	Z6	X7	Y7	Z7	X8	Y8	Z8	X9	Y9	Z9	X10	Y10	Z10	X11	Y11	Z11	X12	Y12	Z12	X13	Y13	Z13	X14	Y14	Z14	X15	Y15	Z15	X16	Y16	Z16	X17	Y17	Z17	X18	Y18	Z18	X19	Y19	Z19	X20	Y20	Z20	X21	Y21	Z21	X22	Y22	Z22	X23	Y23	Z23	X24	Y24	Z24	X25	Y25	Z25	X26	Y26	Z26	X27	Y27	Z27	X28	Y28	Z28	X29	Y29	Z29	X30	Y30	Z30	X31	Y31	Z31	X32	Y32	Z32	X33	Y33	Z33	X34	Y34	Z34	X35	Y35	Z35	X36	Y36	Z36	X37	Y37	Z37	X38	Y38	Z38	X39	Y39	Z39	X40	Y40	Z40	X41	Y41	Z41	X42	Y42	Z42	X43	Y43	Z43	X44	Y44	Z44	X45	Y45	Z45	X46	Y46	Z46	X47	Y47	Z47	X48	Y48	Z48	X49	Y49	Z49	X50	Y50	Z50	X51	Y51	Z51	X52	Y52	Z52	

36	0.35	357.2997131347657	887.7691040039065	-318.2785034179688	159.5178527832032	915.3853149414065	-268.3764648437501	161.3692169189453	907.199890136719	-160.1919708251953	356.8930969238282	894.7590942382815	-111.2003021240235	292.7882080078126	803.0012817382815	-407.0039062500001	228.2041320800782	423.8793945312501	-330.9284057617188	243.1475677490235	427.8465881347657	-195.9955749511719	191.9847717285157	368.1129760742188	-327.5803833007813	250.5724182128907	353.1868896484376	-275.4296569824219	128.966064453125	67.50533294677736	-266.5838623046876	151.1333618164063	75.56602478027345	-182.7026062011719	81.39642333984376	25.91917800903321	-210.064926147461	254.5765991210938	18.61563682556153	-198.4415130615235	262.2163085937501	32.05966949462891	-252.8611755371094	215.0220489501954	12.1206111907959	-301.5558166503907	294.6177978515626	783.9138183593752	-21.12640380859375	437.3238525390626	455.0787353515626	-60.31337356567384	467.9116516113282	450.6765136718751	-194.7274169921876	403.6219482421876	403.210662841797	-58.34552001953126	480.337127685547	389.9201965332032	-105.8660354614258	341.3999633789063	84.93281555175783	-90.9899139404297	376.7185974121094	94.72010040283205	-174.7708129882813	301.9471740722657	44.72036743164063	-143.93408203125	479.4367980957032	24.93564224243165	-152.5920715332032	474.3975830078126	51.39556884765626	-102.5370788574219	435.8233337402345	36.34061813354493	-59.07888793945314	247.2795410156251	1381.63818359375	-222.0041046142579	159.0434112548828	1164.71875	-223.6806182861329	376.7053222656251	1059.450073242188	-211.4092712402344	354.6914367675782	1290.832397460938	-217.3626251220704	165.3797454833985	1206.136840820313	-313.9142761230469	207.3253021240235	1317.976684570313	-320.5498962402344	262.4997863769532	1322.858276367188	-381.9621887207032	310.1840820312501	1323.050048828125	-388.6824340820314	332.3456726074219	1029.3798828125	-474.5235595703126	302.9493713378907	1000.992309570313	-398.855926513672	314.0901489257813	984.1512451171877	-454.8465270996095	503.3832092285157	857.1834106445315	-437.659881591797	455.5081481933595	836.1087036132815	-485.8713989257814	561.5909423828126	801.9382324218752	-446.7587890625001	477.8447875976564	771.6198730468752	-483.0711364746095	149.0936737060547	1218.194702148438	-146.3123168945313	198.3801727294922	1320.571044921875	-136.2514190673828	244.3127899169922	1325.034057617188	-64.90050506591798	297.3612365722657	1325.655517578125	-55.46962356567384	232.2974700927735	1027.076416015625	24.21104621887208	186.1033477783203	1021.171569824219	-39.54414749145509	192.8962097167969	1002.270263671875	9.826234817504885	282.1178588867188	797.4448242187502	12.8632984161377	219.5368194580079	805.3538208007815	47.12462615966798	295.0072937011719	715.7040405273439	23.82746315002442	205.3388214111329	732.0326538085939	51.53565216064455	
37	0.36	371.4342041015626	885.3176879882815	-319.0884399414063	173.8939361572266	913.3882446289065	-267.1594848632813	177.0581970214844	905.1510009765627	-158.7182159423828	373.2402648925782	892.7881469726565	-111.5985488891602	306.3033447265626	801.103210449219	-407.2967224121095	232.973373413086	423.8904418945314	-330.3778381347657	248.8990478515626	427.7915344238282	-195.3848876953126	195.6643524169922	368.7557373046876	-326.8104553222657	254.5272674560547	352.7648010253907	-275.0470581054688	129.5132904052735	68.68804931640626	-265.5010375976563	152.3563842773438	76.68437957763673	-181.81494140625	81.94631958007814	27.67975997924805	-208.6957702636719	254.9439086914063	18.66360092163086	-198.4106445312501	262.3497009277344	32.05688476562501	-252.8067169189454	214.8270416259766	12.54508209228516	-301.1221923828126	311.8391723632813	782.7766723632815	-20.55715560913086	456.7773742675782	454.3704528808595	-61.23720169067384	485.8013916015626	451.0408020019532	-195.9448242187501	426.5293884277345	400.404754638672	-58.76353454589845	503.0390930175782	391.7684326171876	-107.2881469726563	387.357147216797	79.18296051025392	-91.4134979248047	421.1113891601564	91.39379882812501	-175.393539428711	351.0216369628907	35.95384216308594	-144.3505401611328	528.4362792968751	29.29229164123536	-154.4140777587891	522.0249633789064	54.88887405395509	-104.1720733642578	485.1121520996095	37.4891471862793	-60.35677337646486	262.6670532226563	1379.977783203125	-221.7969970703126	174.2141571044922	1163.123413085938	-223.525375366211	391.658172607422	1057.490478515625	-212.0683135986329	369.9712219238282	1289.0556640625	-217.3085632324219	181.0872802734375	1204.599487304688	-314.4006652832032	222.9160156250001	1316.479370117188	-320.8558044433594	278.4569091796876	1321.47265625	-382.1697387695313	326.1846618652344	1322.011474609375	-388.3733520507814	357.2989196777344	1029.871826171875	-475.2365112304689	328.4328002929688	1000.150817871094	-400.0381774902345	341.1873168945313	983.554382324219	-455.7173461914064	537.5199584960939	868.0314941406252	-435.2287597656251	491.1387634277345	843.1204833984377	-483.1156616210939	598.9166259765626	816.5755615234377	-443.0006713867189	517.5194091796876	780.2568359375002	-479.4324645996095	163.99853515625	1216.28271484375	-146.9191131591797	213.7496032714844	1318.589599609375	-136.343994140625	259.6044006347657	1323.071533203125	-64.79787445068361	312.6762084960938	1323.16357421875	-55.02889633178712	238.9748687744141	1026.361694335938	22.41652297973633	192.0723571777344	1022.5966796875	-41.23469543457032	198.378158569336	1003.778747558594	7.992313861846926	275.1968994140626	794.0984497070315	13.39787387847901	213.7269287109376	806.1444091796877	47.93023681640626	282.6521301269532	711.3215942382814	25.28131675720216	194.6518096923829	734.2700805664064	53.5332374572754	
38	0.37	385.591522216797	882.7409667968752	-319.9192810058594	188.3784637451172	911.0119628906252	-265.6602783203126	192.8582763671876	902.698181152344	-157.059310913086	389.7233886718751	890.4881591796877	-111.8424530029297	319.3950805664063	799.2029418945315	-407.5220336914064	238.2570495605469	423.9061279296876	-329.9644775390626	255.3003082275391	427.6405029296876	-194.9827575683594	199.8623657226563	369.4200744628907	-326.2059631347657	258.8869628906251	352.2991333007813	-274.7595214843751	130.1513671875	70.00279998779298	-264.6556396484376	153.4898376464844	77.90810394287111	-181.1112060546875	82.37557983398439	29.66678047180176	-207.6552429199219	255.286361694336	18.73227500915528	-198.4273223876954	262.5114440917969	32.0948715209961	-252.7964019775391	214.7017059326172	12.955322265625	-300.7471008300782	329.1023254394532	781.354431152344	-19.89696121215821	475.4822692871095	453.1495971679689	-62.01202774047853	502.8039550781251	450.5813293457032	-197.0758209228516	448.8814086914064	397.4000549316407	-59.13046264648439	524.9916992187501	393.2810058593751	-108.4994125366211	432.938690185547	74.72158050537111	-91.91719818115236	464.931610107422	89.25059509277345	-176.0562286376953	399.8226318359376	28.66787910461426	-144.8573150634766	576.2583618164064	34.92564773559571	-156.5666656494141	568.7290649414064	59.5764503479004	-106.0831375122071	533.6976318359376	39.89683532714844	-61.89430999755861	278.0853576660157	1378.100830078125	-221.6207885742188	189.4129638671875	1161.272827148438	-223.2466125488282	406.6864624023439	1055.1767578125	-212.6277008056641	385.3503417968751	1286.94482421875	-217.2347412109376	196.7841491699219	1202.763916015625	-314.7594604492188	238.5708312988282	1314.718017578125	-321.1036682128907	294.4418945312501	1319.816772460938	-382.3503417968751	342.2384643554688	1320.68408203125	-388.0324707031251	382.2529602050782	1030.584594726563	-476.0115966796876	353.5481872558594	999.2866821289065	-401.5755310058595	368.1139831542969	983.194519042969	-456.7529296875001	570.4230346679689	879.1020507812502	-432.4727172851564	525.9916992187501	850.7217407226565	-480.2983398437501	634.6138916015626	831.4539794921877	-438.6787109375001	556.1345214843751	789.6394042968752	-475.7593383789064	178.9708099365235	1214.12109375	-147.4349975585938	229.2257385253907	1316.361938476563	-136.3672027587891	274.9532165527344	1320.912109375	-64.64977264404298	328.1104431152344	1320.485107421875	-54.51292800903322	245.6389160156251	1025.775634765625	20.78016090393067	198.1143798828126	1024.107666015625	-42.80126190185548	204.0374145507813	1005.32763671875	6.253069877624513	268.7936096191407	791.6895141601565	13.50741386413575	208.647201538086	807.6193847656252	48.3683319091797	271.0147705078126	708.2567749023439	26.21281051635743	184.9665679931641	737.4091796875001	55.03322982788087	
39	0.38	399.8125610351564	880.1333007812502	-320.7636413574219	203.0103149414063	908.3648071289065	-263.8435058593751	208.8023223876954	899.926940917969	-155.207275390625	406.3474731445314	887.9651489257815	-111.9687728881836	332.0936584472657	797.372009277344	-407.628631591797	244.1084442138672	423.9529724121095	-329.7017211914063	262.3323974609376	427.3906555175782	-194.8007507324219	204.6444091796876	370.1260375976563	-325.7948303222657	263.6811828613282	351.8120117187501	-274.5619506835938	130.892562866211	71.47815704345705	-264.1202087402344	154.5144958496094	79.26397705078126	-180.6520233154297	82.66832733154298	31.9040870666504	-207.028793334961	255.6049041748047	18.80949592590332	-198.5013427734376	262.7200927734376	32.16420364379884	-252.8421020507813	214.6659240722657	13.31108856201172	-300.4541931152344	346.4437255859376	779.6790161132815	-19.1694564819336	493.563201904297	451.5029602050782	-62.66114044189455	519.0555419921876	449.3829956054689	-198.1609191894532	470.6980895996095	394.3044433593751	-59.484676361084	546.2633056640626	394.4876403808595	-109.5431671142578	477.675994873047	71.49771118164064	-92.4927215576172	507.756805419922	88.21631622314455	-176.7521514892578	447.7803955078126	22.85713958740235	-145.4210357666016	622.4782104492189	41.61911392211915	-159.0216674804688	614.1069335937501	65.27856445312501	-108.2565307617188	581.1206665039064	43.39285278320313	-63.68057250976564	293.5352478027344	1376.056518554688	-221.4552764892579	204.6548919677735	1159.209838867188	-222.8528594970704	421.810516357422	1052.578735351563	-213.0686035156251	400.8424072265626	1284.560668945313	-217.1343231201172	212.4698333740235	1200.687622070313	-314.9754028320313	254.2872161865235	1312.757690429688	-321.2732238769532	310.4436340332032	1317.962524414063	-382.4757080078126	358.3331604003907	1319.140869140625	-387.6356506347657	407.1434020996095	1031.574096679688	-476.8145751953126	378.2569580078126	998.4398193359377	-403.3948669433595	394.7865600585939	983.0952758789065	-457.9026184082032	602.0256958007814	890.2717285156252	-429.4155883789064	559.9352416992189	858.8630371093752	-477.4397583007814	668.6512451171876	846.4315185546877	-433.9056091308595	593.5347900390626	799.6738891601565	-472.0845947265626	194.0336303710938	1211.759155273438	-147.8520812988282	244.8143463134766	1313.93310546875	-136.3130645751953	290.3696899414063	1318.621826171875	-64.45838165283205	343.6583862304688	1317.717529296875	-53.90600585937501	252.3158874511719	1025.371337890625	19.3304672241211	204.3182830810547	1025.747680664063	-44.22400665283204	209.8992156982422	1006.958740234375	4.640550136566163	263.1044006347657	790.1992797851565	13.20696926116944	204.4036560058594	809.7149047851565	48.42255020141603	260.3507995605469	706.4620361328126	26.57467842102051	176.4474792480469	741.3184204101564	55.97149658203126	
